<svg width="256" height="256" viewBox="0 0 256 256" fill="none" xmlns="http://www.w3.org/2000/svg">
<path d="M71 71H87.2857V87.2857H71V71ZM103.571 103.571H87.2857V87.2857H103.571V103.571ZM119.857 119.857H103.571V103.571H119.857V119.857ZM136.143 119.857H119.857V136.143H103.571V152.429H87.2857V168.714H71V185H87.2857V168.714H103.571V152.429H119.857V136.143H136.143V152.429H152.429V168.714H168.714V185H185V168.714H168.714V152.429H152.429V136.143H136.143V119.857ZM152.429 103.571V119.857H136.143V103.571H152.429ZM168.714 87.2857V103.571H152.429V87.2857H168.714ZM168.714 87.2857V71H185V87.2857H168.714Z" fill="white"/>
</svg>
